# xmcd
#
# Track frame offsets: 
#        150
#        45126
#        74645
#        79758
#        109992
#        140668
#        154527
#        196266
#        228148
#        245705
#        269697
#        306315
#        330460
#
# Disc length: 4628 seconds
#
# Revision: 0
# Processed by: cddbd v1.5.2PL0 Copyright (c) Steve Scherf et al.
# Submitted via: ExactAudioCopy v1.0b6
#
DISCID=b512120d
DTITLE=Yehudi Menuhin - Yehudi: The Art of Menuhin (2016)
DYEAR=2016
DGENRE=Classical Violin
TTITLE0=Yehudi Menuhin - Hephzibah Menuhin - BEETHOVEN: Violin Sonata N
TTITLE0=o.5 In F, Op.24 'Spring' - I. Allegro
TTITLE1=Yehudi Menuhin - Hephzibah Menuhin - BEETHOVEN: Violin Sonata N
TTITLE1=o.5 In F, Op.24 'Spring' - II. Adagio molto espressivo
TTITLE2=Yehudi Menuhin - Hephzibah Menuhin - BEETHOVEN: Violin Sonata N
TTITLE2=o.5 In F, Op.24 'Spring' - III. Scherzo: Allegro molto
TTITLE3=Yehudi Menuhin - Hephzibah Menuhin - BEETHOVEN: Violin Sonata N
TTITLE3=o.5 In F, Op.24 'Spring' - IV. Rondo: Allegro ma non troppo 
TTITLE4=Yehudi Menuhin - Hephzibah Menuhin - BEETHOVEN: Sonate N°9 In A
TTITLE4=, Op.47 'Kreutzer' - III. Finale: Presto
TTITLE5=Yehudi Menuhin - Louis Kentner - BRAHMS: Violin Sonata No. 3 in
TTITLE5=D minor, Op. 108 - III. Un poco presto e con sentimento
TTITLE6=Yehudi Menuhin - Hephzibah Menuhin - Maurice Gendron - SCHUBERT:
TTITLE6=Piano Trio No. 1 in B flat, D898 - II. Andante un poco mosso
TTITLE7=Yehudi Menuhin - Hephzibah Menuhin - MOZART: Violin Sonata in A
TTITLE7=, K526 - II. Andante
TTITLE8=BACH: Sonata for solo violin No. 3 in C, BWV 1005 - IV. Allegr
TTITLE8=o assai
TTITLE9=Yehudi Menuhin - George Malcom - Ambrose Gauntlett - BACH: Sonat
TTITLE9=a No. 3 in E, BWV 1016 - III. Adagio ma non tanto
TTITLE10=Yehudi Menuhin - Hephzibah Menuhin - FRANCK: Violin Sonata in 
TTITLE10=A - II. Allegro
TTITLE11=Yehudi Menuhin - Jeremy Menuhin - Ernst Wallfisch - Maurice Gend
TTITLE11=ron - FAURE: Piano Quartet No. 1 in C minor, Op. 15 - II. Sch
TTITLE11=erzo: Allegro vivo
TTITLE12=Yehudi Menuhin - Jeremy Menuhin - FAURE: Berceuse in D, Op. 16
EXTD=
EXTT0=
EXTT1=
EXTT2=
EXTT3=
EXTT4=
EXTT5=
EXTT6=
EXTT7=
EXTT8=
EXTT9=
EXTT10=
EXTT11=
EXTT12=
PLAYORDER=
